<?xml version="1.0" encoding="utf-8"?>
<!-- Generator: Adobe Illustrator 19.1.0, SVG Export Plug-In . SVG Version: 6.00 Build 0)  -->
<svg version="1.1" id="Layer_1" xmlns="http://www.w3.org/2000/svg" xmlns:xlink="http://www.w3.org/1999/xlink" x="0px" y="0px"
	 width="19.3px" height="12.5px" viewBox="0 0 19.3 12.5" style="enable-background:new 0 0 19.3 12.5;" xml:space="preserve">
<g>
	<defs>
		<path id="SVGID_1_" d="M6.1,7.5c1.2,0,2.3,0,3.5,0c-0.5,2.6-4,3.5-5.9,1.8C1.8,7.8,1.9,4.5,3.9,3.1c1.4-1.1,3.4-0.9,4.8,0.1
			c0.5-0.5,1.1-1.1,1.6-1.6C9.1,0.6,7.7-0.1,6.1,0C3-0.1,0.1,2.7,0,5.9c-0.2,2.6,1.5,5.2,3.9,6.2c2.4,0.9,5.5,0.3,7-1.9
			c1-1.4,1.2-3.2,1.1-4.8c-2,0-3.9,0-5.9,0C6.1,6.1,6.1,6.8,6.1,7.5z"/>
	</defs>
	<clipPath id="SVGID_2_">
		<use xlink:href="#SVGID_1_"  style="overflow:visible;"/>
	</clipPath>
	<g style="clip-path:url(#SVGID_2_);">
		<defs>
			<rect id="SVGID_3_" x="-776.4" y="-748" width="1440" height="1024"/>
		</defs>
		<clipPath id="SVGID_4_">
			<use xlink:href="#SVGID_3_"  style="overflow:visible;"/>
		</clipPath>
		<rect x="-5" y="-5" style="clip-path:url(#SVGID_4_);fill:#04A1DD;" width="22" height="22.5"/>
	</g>
</g>
<g>
	<defs>
		<path id="SVGID_5_" d="M17.6,5.4c0-0.6,0-1.2,0-1.8h-1.7c0,0.6,0,1.2,0,1.8c-0.6,0-1.2,0-1.8,0v1.8c0.6,0,1.2,0,1.8,0
			c0,0.6,0,1.2,0,1.8h1.7c0-0.6,0-1.2,0-1.8c0.6,0,1.2,0,1.8,0V5.4C18.7,5.4,18.2,5.4,17.6,5.4"/>
	</defs>
	<clipPath id="SVGID_6_">
		<use xlink:href="#SVGID_5_"  style="overflow:visible;"/>
	</clipPath>
	<g style="clip-path:url(#SVGID_6_);">
		<defs>
			<rect id="SVGID_7_" x="-776.4" y="-748" width="1440" height="1024"/>
		</defs>
		<clipPath id="SVGID_8_">
			<use xlink:href="#SVGID_7_"  style="overflow:visible;"/>
		</clipPath>
		<rect x="9.1" y="-1.4" style="clip-path:url(#SVGID_8_);fill:#04A1DD;" width="15.3" height="15.4"/>
	</g>
</g>
</svg>
