<?xml version="1.0" encoding="utf-8"?>
<!-- Generator: Adobe Illustrator 19.1.0, SVG Export Plug-In . SVG Version: 6.00 Build 0)  -->
<svg version="1.1" id="Layer_1" xmlns="http://www.w3.org/2000/svg" xmlns:xlink="http://www.w3.org/1999/xlink" x="0px" y="0px"
	 width="22.7px" height="18.4px" viewBox="0 0 22.7 18.4" style="enable-background:new 0 0 22.7 18.4;" xml:space="preserve">
<g>
	<defs>
		<rect id="SVGID_1_" width="22.7" height="18.4"/>
	</defs>
	<clipPath id="SVGID_2_">
		<use xlink:href="#SVGID_1_"  style="overflow:visible;"/>
	</clipPath>
	<g style="clip-path:url(#SVGID_2_);">
		<defs>
			<rect id="SVGID_3_" x="-730.1" y="-744.7" width="1440" height="1024"/>
		</defs>
		<clipPath id="SVGID_4_">
			<use xlink:href="#SVGID_3_"  style="overflow:visible;"/>
		</clipPath>
		<g style="clip-path:url(#SVGID_4_);enable-background:new    ;">
			<g>
				<defs>
					<rect id="SVGID_5_" x="2.4" y="1.3" width="18" height="15"/>
				</defs>
				<clipPath id="SVGID_6_">
					<use xlink:href="#SVGID_5_"  style="overflow:visible;"/>
				</clipPath>
				<g style="clip-path:url(#SVGID_6_);">
					<defs>
						<path id="SVGID_7_" d="M19.8,3.7c-0.6,0.3-1.3,0.5-2,0.6c0.7-0.4,1.3-1.1,1.6-2C18.6,2.8,17.9,3,17,3.2
							c-0.6-0.7-1.6-1.1-2.6-1.1c-2,0-3.5,1.6-3.5,3.5c0,0.3,0,0.5,0.1,0.8C8.1,6.3,5.5,4.9,3.7,2.7C3.4,3.3,3.2,3.9,3.2,4.5
							c0,1.2,0.6,2.3,1.6,2.9C4.2,7.4,3.7,7.3,3.2,7c0,0,0,0,0,0c0,1.7,1.2,3.1,2.8,3.5c-0.3,0.1-0.6,0.1-0.9,0.1
							c-0.2,0-0.4,0-0.7-0.1C4.9,12,6.2,13,7.8,13C6.5,14,5,14.6,3.4,14.6c-0.3,0-0.6,0-0.8,0c1.6,1,3.4,1.6,5.4,1.6
							C14.5,16.1,18,10.7,18,6c0-0.2,0-0.3,0-0.5C18.7,5.1,19.3,4.5,19.8,3.7"/>
					</defs>
					<clipPath id="SVGID_8_">
						<use xlink:href="#SVGID_7_"  style="overflow:visible;"/>
					</clipPath>
					<g style="clip-path:url(#SVGID_8_);">
						<defs>
							<rect id="SVGID_9_" x="-0.6" y="-0.7" width="24" height="20"/>
						</defs>
						<clipPath id="SVGID_10_">
							<use xlink:href="#SVGID_9_"  style="overflow:visible;"/>
						</clipPath>
						<rect x="-2.5" y="-2.9" style="clip-path:url(#SVGID_10_);fill:#ffffff;" width="27.3" height="24"/>
					</g>
				</g>
			</g>
		</g>
	</g>
</g>
</svg>
