<?xml version="1.0" encoding="utf-8"?>
<!-- Generator: Adobe Illustrator 19.1.0, SVG Export Plug-In . SVG Version: 6.00 Build 0)  -->
<svg version="1.1" id="Layer_1" xmlns="http://www.w3.org/2000/svg" xmlns:xlink="http://www.w3.org/1999/xlink" x="0px" y="0px"
	 width="19.3px" height="11px" viewBox="0 0 19.3 11" style="enable-background:new 0 0 19.3 11;" xml:space="preserve">
<g>
	<defs>
		<path id="SVGID_1_" d="M9.5,11h1.2c0,0,0.3,0,0.5-0.2c0.2-0.2,0.2-0.5,0.2-0.5s0-1.5,0.7-1.8c0.7-0.2,1.6,1.5,2.6,2.2
			c0.7,0.5,1.3,0.4,1.3,0.4l2.6,0c0,0,1.3-0.1,0.7-1.1c-0.1-0.1-0.4-0.8-1.9-2.2c-1.6-1.5-1.4-1.3,0.5-3.9c1.2-1.6,1.7-2.5,1.5-3
			c-0.1-0.4-1-0.3-1-0.3l-2.9,0c0,0-0.2,0-0.4,0.1c-0.2,0.1-0.3,0.3-0.3,0.3s-0.5,1.2-1.1,2.3c-1.3,2.2-1.8,2.3-2,2.2
			c-0.5-0.3-0.4-1.3-0.4-2c0-2.1,0.3-3-0.6-3.2C10.3,0.1,10.1,0,9.3,0c-1,0-1.9,0-2.4,0.2C6.6,0.4,6.3,0.8,6.5,0.8
			c0.2,0,0.6,0.1,0.9,0.4c0.3,0.4,0.3,1.3,0.3,1.3S7.8,5,7.2,5.4C6.8,5.6,6.3,5.1,5.1,3.1c-0.6-1-1-2.1-1-2.1S4,0.8,3.8,0.7
			C3.7,0.5,3.4,0.5,3.4,0.5l-2.8,0c0,0-0.4,0-0.6,0.2c-0.1,0.2,0,0.5,0,0.5s2.2,5.1,4.6,7.6C6.9,11.1,9.5,11,9.5,11"/>
	</defs>
	<clipPath id="SVGID_2_">
		<use xlink:href="#SVGID_1_"  style="overflow:visible;"/>
	</clipPath>
	<g style="clip-path:url(#SVGID_2_);">
		<defs>
			<rect id="SVGID_3_" x="-688.2" y="-748" width="1440" height="1024"/>
		</defs>
		<clipPath id="SVGID_4_">
			<use xlink:href="#SVGID_3_"  style="overflow:visible;"/>
		</clipPath>
		<rect x="-5" y="-5" style="clip-path:url(#SVGID_4_);fill:#04A1DD;" width="29.3" height="21"/>
	</g>
</g>
</svg>
