<?xml version="1.0" encoding="utf-8"?>
<!-- Generator: Adobe Illustrator 19.1.0, SVG Export Plug-In . SVG Version: 6.00 Build 0)  -->
<svg version="1.1" id="Layer_1" xmlns="http://www.w3.org/2000/svg" xmlns:xlink="http://www.w3.org/1999/xlink" x="0px" y="0px"
	 width="147.4px" height="147.4px" viewBox="0 0 147.4 147.4" style="enable-background:new 0 0 147.4 147.4;" xml:space="preserve"
	>
<g>
	<defs>
		<rect id="SVGID_1_" width="147.4" height="147.4"/>
	</defs>
	<clipPath id="SVGID_2_">
		<use xlink:href="#SVGID_1_"  style="overflow:visible;"/>
	</clipPath>
	<path style="clip-path:url(#SVGID_2_);fill:#00A1DD;" d="M147.4,73.7C147.4,33,114.4,0,73.7,0c-1.1,0-2.2,0-3.3,0.1L55.3,41.5h13.1
		c7.8,0,12,6,9.3,13.4L59.2,106H43.6l19.9-54.8H51.8l-20,54.8H16.2l23.5-64.5h0L53.8,2.7C22.8,11.4,0,39.9,0,73.7
		c0,34.8,24.1,64,56.6,71.7l13.7-37.6h0l24.1-66.3h28.8c7.8,0,12,6,9.4,13.4l-16.4,44.9c-1.2,3.4-5.2,6.2-8.9,6.2H86.6l-15.1,41.4
		c0.7,0,1.5,0,2.2,0C114.4,147.4,147.4,114.4,147.4,73.7"/>
	<polygon style="clip-path:url(#SVGID_2_);fill:#00A1DD;" points="118.3,51.2 106.5,51.2 90.1,96.3 101.9,96.3 	"/>
</g>
</svg>
