<svg xmlns="http://www.w3.org/2000/svg" xmlns:xlink="http://www.w3.org/1999/xlink" preserveAspectRatio="xMidYMid" width="27" height="33" viewBox="0 0 27 33">
  <path d="M27.000,6.878 L27.000,33.000 L-0.000,33.000 L-0.000,6.878 L11.571,6.878 L11.571,8.329 L1.543,8.329 L1.543,31.549 L25.457,31.549 L25.457,8.329 L15.429,8.329 L15.429,6.878 L27.000,6.878 ZM13.336,0.000 C13.172,0.020 13.087,0.095 12.955,0.188 L9.097,4.030 C8.796,4.330 8.796,4.816 9.097,5.116 C9.399,5.416 9.887,5.416 10.188,5.116 L12.729,2.586 L12.729,19.171 L14.271,19.171 L14.271,2.586 L16.812,5.116 C17.113,5.416 17.601,5.416 17.903,5.116 C18.204,4.816 18.204,4.330 17.903,4.030 L14.045,0.188 L13.790,0.019 C13.495,0.014 13.647,0.020 13.336,0.000 Z" class="cls-1"/>
</svg>
